<svg width="64" height="64" viewBox="0 0 64 64" fill="none" xmlns="http://www.w3.org/2000/svg">
<path fill-rule="evenodd" clip-rule="evenodd" d="M60.0527 30.3809C60.209 29.241 60.2896 28.0786 60.2896 26.8986C60.2896 12.0429 47.52 0 31.7678 0C16.0157 0 3.24609 12.0429 3.24609 26.8986C3.24609 41.7542 16.0157 53.7971 31.7678 53.7971V64C40.0384 61.2947 57.4606 49.6696 60.0577 30.3768L60.0527 30.3809ZM34.3186 19.7101H15.5359L14.6084 16.9275H34.3186C37.9044 16.9275 40.8113 19.8344 40.8113 23.4203V24.5797C40.8113 26.1165 42.0571 27.3623 43.5939 27.3623H44.7533C47.3147 27.3623 49.391 29.4387 49.391 32V36.1739H46.6084V32C46.6084 30.9755 45.7779 30.1449 44.7533 30.1449H43.5939C40.5203 30.1449 38.0287 27.6533 38.0287 24.5797V23.4203C38.0287 21.3712 36.3676 19.7101 34.3186 19.7101ZM30.1446 25.5072H18.3186L19.2461 28.2899H30.1446V25.5072ZM21.5649 33.8551H30.1446V36.6377H22.4925L21.5649 33.8551ZM38.2606 39.8841C39.9254 39.8841 41.2751 38.5344 41.2751 36.8696C41.2751 35.2047 39.9254 33.8551 38.2606 33.8551C36.5957 33.8551 35.2461 35.2047 35.2461 36.8696C35.2461 38.5344 36.5957 39.8841 38.2606 39.8841Z" fill="black"/>
</svg>
